<mxfile host="app.diagrams.net" agent="Mozilla/5.0 (Windows NT 10.0; Win64; x64) AppleWebKit/537.36 (KHTML, like Gecko) Chrome/129.0.0.0 Safari/537.36 Edg/129.0.0.0" version="24.7.17">
  <diagram name="1 oldal" id="cx8WCjUglIn2vkEH7MYA">
    <mxGraphModel dx="683" dy="358" grid="1" gridSize="10" guides="1" tooltips="1" connect="1" arrows="1" fold="1" page="1" pageScale="1" pageWidth="827" pageHeight="1169" math="0" shadow="0">
      <root>
        <mxCell id="0" />
        <mxCell id="1" parent="0" />
        <mxCell id="a4_chtPL-ovw6tT8Rs9q-1" value="&lt;font size=&quot;1&quot;&gt;KA_orarend&lt;/font&gt;" style="ellipse;whiteSpace=wrap;html=1;" vertex="1" parent="1">
          <mxGeometry x="348" y="20" width="66" height="40" as="geometry" />
        </mxCell>
        <mxCell id="a4_chtPL-ovw6tT8Rs9q-3" value="&lt;font size=&quot;1&quot;&gt;Óra&lt;/font&gt;" style="ellipse;whiteSpace=wrap;html=1;" vertex="1" parent="1">
          <mxGeometry x="348" y="90" width="66" height="40" as="geometry" />
        </mxCell>
        <mxCell id="a4_chtPL-ovw6tT8Rs9q-4" value="&lt;font size=&quot;1&quot;&gt;Helyszín&lt;/font&gt;" style="ellipse;whiteSpace=wrap;html=1;" vertex="1" parent="1">
          <mxGeometry x="348" y="170" width="66" height="40" as="geometry" />
        </mxCell>
        <mxCell id="a4_chtPL-ovw6tT8Rs9q-5" value="&lt;font size=&quot;1&quot;&gt;Időpont&lt;/font&gt;" style="ellipse;whiteSpace=wrap;html=1;" vertex="1" parent="1">
          <mxGeometry x="260" y="170" width="66" height="40" as="geometry" />
        </mxCell>
        <mxCell id="a4_chtPL-ovw6tT8Rs9q-6" value="&lt;font size=&quot;1&quot;&gt;Oktató&lt;/font&gt;" style="ellipse;whiteSpace=wrap;html=1;" vertex="1" parent="1">
          <mxGeometry x="440" y="170" width="66" height="40" as="geometry" />
        </mxCell>
        <mxCell id="a4_chtPL-ovw6tT8Rs9q-7" value="&lt;font size=&quot;1&quot;&gt;Tárgy&lt;/font&gt;" style="ellipse;whiteSpace=wrap;html=1;" vertex="1" parent="1">
          <mxGeometry x="170" y="170" width="66" height="40" as="geometry" />
        </mxCell>
        <mxCell id="a4_chtPL-ovw6tT8Rs9q-8" value="&lt;font size=&quot;1&quot;&gt;Szak&lt;/font&gt;" style="ellipse;whiteSpace=wrap;html=1;" vertex="1" parent="1">
          <mxGeometry x="530" y="170" width="66" height="40" as="geometry" />
        </mxCell>
        <mxCell id="a4_chtPL-ovw6tT8Rs9q-18" value="" style="endArrow=none;html=1;rounded=0;entryX=0.5;entryY=1;entryDx=0;entryDy=0;" edge="1" parent="1" target="a4_chtPL-ovw6tT8Rs9q-1">
          <mxGeometry width="50" height="50" relative="1" as="geometry">
            <mxPoint x="381" y="90" as="sourcePoint" />
            <mxPoint x="430" y="130" as="targetPoint" />
          </mxGeometry>
        </mxCell>
        <mxCell id="a4_chtPL-ovw6tT8Rs9q-19" value="" style="endArrow=none;html=1;rounded=0;entryX=0.5;entryY=1;entryDx=0;entryDy=0;exitX=0.5;exitY=0;exitDx=0;exitDy=0;" edge="1" parent="1" source="a4_chtPL-ovw6tT8Rs9q-4" target="a4_chtPL-ovw6tT8Rs9q-3">
          <mxGeometry width="50" height="50" relative="1" as="geometry">
            <mxPoint x="380.76" y="160" as="sourcePoint" />
            <mxPoint x="380.76" y="140" as="targetPoint" />
          </mxGeometry>
        </mxCell>
        <mxCell id="a4_chtPL-ovw6tT8Rs9q-20" value="" style="endArrow=none;html=1;rounded=0;entryX=0.5;entryY=1;entryDx=0;entryDy=0;exitX=0.5;exitY=0;exitDx=0;exitDy=0;" edge="1" parent="1" source="a4_chtPL-ovw6tT8Rs9q-6" target="a4_chtPL-ovw6tT8Rs9q-3">
          <mxGeometry width="50" height="50" relative="1" as="geometry">
            <mxPoint x="390.76" y="170" as="sourcePoint" />
            <mxPoint x="390.76" y="150" as="targetPoint" />
          </mxGeometry>
        </mxCell>
        <mxCell id="a4_chtPL-ovw6tT8Rs9q-21" value="" style="endArrow=none;html=1;rounded=0;entryX=0.5;entryY=1;entryDx=0;entryDy=0;exitX=0.5;exitY=0;exitDx=0;exitDy=0;" edge="1" parent="1" source="a4_chtPL-ovw6tT8Rs9q-8" target="a4_chtPL-ovw6tT8Rs9q-3">
          <mxGeometry width="50" height="50" relative="1" as="geometry">
            <mxPoint x="483" y="170" as="sourcePoint" />
            <mxPoint x="391" y="150" as="targetPoint" />
          </mxGeometry>
        </mxCell>
        <mxCell id="a4_chtPL-ovw6tT8Rs9q-22" value="" style="endArrow=none;html=1;rounded=0;exitX=0.5;exitY=0;exitDx=0;exitDy=0;" edge="1" parent="1" source="a4_chtPL-ovw6tT8Rs9q-5">
          <mxGeometry width="50" height="50" relative="1" as="geometry">
            <mxPoint x="483" y="170" as="sourcePoint" />
            <mxPoint x="380" y="130" as="targetPoint" />
          </mxGeometry>
        </mxCell>
        <mxCell id="a4_chtPL-ovw6tT8Rs9q-23" value="" style="endArrow=none;html=1;rounded=0;entryX=0.5;entryY=1;entryDx=0;entryDy=0;exitX=0.5;exitY=0;exitDx=0;exitDy=0;" edge="1" parent="1" source="a4_chtPL-ovw6tT8Rs9q-7" target="a4_chtPL-ovw6tT8Rs9q-3">
          <mxGeometry width="50" height="50" relative="1" as="geometry">
            <mxPoint x="573" y="170" as="sourcePoint" />
            <mxPoint x="391" y="150" as="targetPoint" />
          </mxGeometry>
        </mxCell>
        <mxCell id="a4_chtPL-ovw6tT8Rs9q-24" value="&lt;font size=&quot;1&quot;&gt;Tol&lt;/font&gt;" style="ellipse;whiteSpace=wrap;html=1;" vertex="1" parent="1">
          <mxGeometry x="260" y="250" width="66" height="40" as="geometry" />
        </mxCell>
        <mxCell id="a4_chtPL-ovw6tT8Rs9q-25" value="&lt;font size=&quot;1&quot;&gt;Nap&lt;/font&gt;" style="ellipse;whiteSpace=wrap;html=1;" vertex="1" parent="1">
          <mxGeometry x="170" y="250" width="66" height="40" as="geometry" />
        </mxCell>
        <mxCell id="a4_chtPL-ovw6tT8Rs9q-26" value="&lt;font size=&quot;1&quot;&gt;IG&lt;/font&gt;" style="ellipse;whiteSpace=wrap;html=1;" vertex="1" parent="1">
          <mxGeometry x="348" y="250" width="66" height="40" as="geometry" />
        </mxCell>
        <mxCell id="a4_chtPL-ovw6tT8Rs9q-27" value="" style="endArrow=none;html=1;rounded=0;exitX=0.5;exitY=1;exitDx=0;exitDy=0;entryX=0.5;entryY=0;entryDx=0;entryDy=0;" edge="1" parent="1" source="a4_chtPL-ovw6tT8Rs9q-5" target="a4_chtPL-ovw6tT8Rs9q-24">
          <mxGeometry width="50" height="50" relative="1" as="geometry">
            <mxPoint x="303" y="180" as="sourcePoint" />
            <mxPoint x="390" y="150" as="targetPoint" />
          </mxGeometry>
        </mxCell>
        <mxCell id="a4_chtPL-ovw6tT8Rs9q-28" value="" style="endArrow=none;html=1;rounded=0;exitX=0.5;exitY=1;exitDx=0;exitDy=0;entryX=0.5;entryY=0;entryDx=0;entryDy=0;" edge="1" parent="1" source="a4_chtPL-ovw6tT8Rs9q-5" target="a4_chtPL-ovw6tT8Rs9q-26">
          <mxGeometry width="50" height="50" relative="1" as="geometry">
            <mxPoint x="303" y="220" as="sourcePoint" />
            <mxPoint x="303" y="250" as="targetPoint" />
          </mxGeometry>
        </mxCell>
        <mxCell id="a4_chtPL-ovw6tT8Rs9q-29" value="" style="endArrow=none;html=1;rounded=0;entryX=0.5;entryY=0;entryDx=0;entryDy=0;" edge="1" parent="1" target="a4_chtPL-ovw6tT8Rs9q-25">
          <mxGeometry width="50" height="50" relative="1" as="geometry">
            <mxPoint x="290" y="210" as="sourcePoint" />
            <mxPoint x="391" y="250" as="targetPoint" />
          </mxGeometry>
        </mxCell>
      </root>
    </mxGraphModel>
  </diagram>
</mxfile>
